<svg width="893" height="471" viewBox="0 0 893 471" fill="none" xmlns="http://www.w3.org/2000/svg">
<path fill-rule="evenodd" clip-rule="evenodd" d="M0 116.919L154.721 48.3501L309.441 116.919V219.773C309.441 314.913 243.427 403.882 154.721 425.481C66.0141 403.882 0 314.913 0 219.773V116.919ZM38.6801 131.864L154.721 77.3602L270.761 131.864V213.62C270.761 289.244 221.25 359.963 154.721 377.131C88.1907 359.963 38.6801 289.244 38.6801 213.62V131.864Z" fill="#1746A2"/>
<path d="M473.164 209H373.299C375.634 201.62 376.755 190.97 376.755 176.864V107.173C376.755 93.8142 375.634 83.071 373.299 75.0369H469.894C494.837 74.6633 514.922 86.8077 514.829 107.64C514.829 116.702 511.092 123.989 503.712 129.687C496.332 135.386 486.99 138.188 475.873 138.188H473.911V140.15H477.555C494.65 140.15 508.289 144.728 516.417 155.004C520.434 160.142 522.489 166.401 522.489 173.594C522.582 196.295 501.283 209.374 473.164 209ZM406.556 97.8312V128.659H460.926C468.213 128.659 474.191 127.258 478.862 124.549C483.44 121.84 485.775 118.103 485.775 113.152C485.775 108.201 483.533 104.464 478.956 101.755C474.378 99.1391 468.493 97.8312 461.3 97.8312H406.556ZM406.556 150.052V185.271H464.196C481.478 185.271 492.502 179.199 492.502 168.082C492.502 162.477 489.886 158.086 484.561 154.817C479.236 151.641 472.323 150.052 463.822 150.052H406.556ZM581.156 209H545.377C547.619 201.059 548.74 190.97 548.74 178.919V105.118C548.74 92.88 547.619 82.7907 545.377 75.0369H581.156C578.821 83.071 577.7 93.0668 577.7 105.118V178.919C577.7 190.783 578.821 200.779 581.156 209ZM659.161 211.709C644.121 211.709 632.443 207.879 624.129 200.125C615.815 192.371 611.704 181.722 611.704 168.082V142.205C611.704 130.995 610.583 121.373 608.248 113.339H644.027C641.692 121.373 640.571 130.621 640.571 141.084V162.104C640.571 170.791 643.28 177.704 648.698 182.656C654.117 187.7 661.403 190.223 670.652 190.223C679.994 190.223 688.121 187.046 695.034 180.787C701.854 174.528 705.31 166.868 705.31 157.9V141.084C705.31 128.753 704.189 119.504 701.854 113.339H737.82C735.485 120.719 734.364 129.781 734.364 140.524V180.507C734.364 191.998 735.485 201.433 737.82 209H702.227C704.283 203.955 705.31 197.603 705.31 190.036V183.216H703.348C700.079 192.465 694.474 199.565 686.44 204.422C678.405 209.28 669.344 211.709 659.161 211.709ZM827.783 211.709C807.23 211.709 790.602 207.038 777.803 197.79C765.005 188.541 758.559 176.303 758.559 161.169C757.999 131.742 786.585 110.256 825.354 110.63C843.477 110.63 857.864 113.806 868.42 120.252C878.976 126.698 884.301 134.638 884.301 144.167C884.301 153.602 879.91 160.609 871.129 165.186C862.254 169.764 850.11 172.099 834.696 172.099C817.226 172.099 800.971 168.456 786.118 161.169L784.997 162.104C785.557 168.363 788.266 173.968 793.031 178.732C797.795 183.496 803.867 187.14 811.061 189.475C818.254 191.904 826.008 193.119 834.322 193.119C843.851 193.119 852.912 191.998 861.413 189.662C869.915 187.42 876.641 184.244 881.779 180.133L882.339 200.779C876.641 204.142 868.7 206.758 858.424 208.72C848.148 210.775 837.965 211.709 827.783 211.709ZM827.035 158.273C836.284 158.273 843.664 157.152 849.176 154.91C854.687 152.762 857.49 149.212 857.49 144.354C857.49 140.057 854.594 136.32 848.802 133.05C842.916 129.874 834.976 128.286 824.98 128.286C815.638 128.286 807.137 130.248 799.477 134.171C791.723 138.188 787.052 143.42 785.37 150.052C797.889 155.564 811.808 158.273 827.035 158.273Z" fill="#1746A2"/>
<path d="M451.205 401.337C422.422 401.337 399.304 390.458 399.304 360.428V302.408H370.974V282.01H399.304V243.934L433.414 236.568V282.01H485.768V302.408H433.414V350.682C433.414 367.907 444.179 375.726 460.497 375.726C465.597 375.726 470.696 374.933 475.796 373.46C480.895 371.987 484.861 370.06 487.694 367.68V393.858C483.502 396.124 478.062 397.937 471.15 399.297C464.237 400.657 457.551 401.337 451.205 401.337ZM551.721 398.05H508.432C511.039 389.098 512.285 378.106 512.285 365.074V316.573C512.285 302.634 511.039 291.189 508.432 282.01H553.42C551.721 284.843 550.361 288.583 549.341 293.455C548.208 298.328 547.641 303.088 547.641 307.734V317.933H549.681C552.514 305.581 558.293 295.948 566.792 289.036C575.291 282.123 585.49 278.724 597.276 278.724C606.228 278.724 613.934 280.084 620.506 282.917V314.533C617.9 311.927 613.82 309.774 608.381 308.074C602.828 306.374 597.502 305.467 592.176 305.467C585.037 305.467 578.011 307.167 571.212 310.68C564.299 314.193 558.633 319.179 554.214 325.525C549.681 331.871 547.414 338.784 547.414 346.263V372.327C547.414 382.979 548.888 391.591 551.721 398.05ZM678.753 260.366C674.9 263.312 669.914 264.785 663.682 264.785C657.449 264.785 652.463 263.312 648.61 260.366C644.644 257.419 642.717 253.68 642.717 249.034C642.717 244.388 644.644 240.648 648.61 237.702C652.463 234.755 657.449 233.282 663.682 233.282C669.914 233.282 674.9 234.755 678.753 237.702C682.606 240.648 684.533 244.388 684.533 249.034C684.533 253.68 682.606 257.419 678.753 260.366ZM685.439 398.05H641.811C644.644 388.871 646.003 376.746 646.003 361.561V303.541C646.003 293.909 645.55 286.656 644.644 282.01C650.083 284.163 656.542 285.183 663.908 285.183C671.274 285.183 677.507 284.163 682.719 282.01C681.7 287.109 681.246 294.249 681.246 303.541V361.561C681.246 376.746 682.606 388.871 685.439 398.05ZM761.251 444.512H717.622C720.342 435.786 721.702 422.868 721.702 405.756V324.279C721.702 306.487 720.342 292.436 717.622 282.01H761.477C758.531 289.602 757.058 298.328 757.058 308.187V312.153H759.324C763.97 301.954 771.336 293.795 781.422 287.789C791.507 281.783 803.406 278.724 817.118 278.724C836.949 278.724 852.814 284.39 864.826 295.722C876.838 307.054 882.844 321.786 882.844 340.03C882.844 358.275 876.838 373.007 864.826 384.339C852.814 395.671 836.949 401.337 817.118 401.337C803.519 401.337 791.734 398.39 781.648 392.271C771.563 386.265 764.084 378.219 759.324 367.907H757.058V405.756C757.058 421.848 758.418 434.766 761.251 444.512ZM803.406 374.82C816.891 374.82 827.997 371.533 836.609 365.074C845.108 358.615 849.414 350.342 849.414 340.03C849.414 329.718 845.108 321.219 836.609 314.76C827.997 308.3 816.891 305.014 803.406 305.014C790.374 305.014 779.495 308.3 770.883 314.873C762.271 321.559 757.964 329.945 757.964 340.03C757.964 349.436 762.384 357.595 771.11 364.507C779.835 371.42 790.601 374.82 803.406 374.82Z" fill="#1746A2"/>
</svg>
